# xmcd
#
# Track frame offsets:
# 150
# 18386
# 33800
# 47164
# 60974
# 79807
# 90063
# 104548
# 116953
# 129472
# 142181
#
# Disc length: 2062 seconds
#
# Revision: 0
# Processed by: cddbd v1.5.1PL0 Copyright (c) Steve Scherf et al.
# Submitted via: Audion 3.0.2 (http://www.panic.com/audion/)
#
DISCID=8a080c0b
DTITLE=Country Doctors - More Venom Less Self Pity
DYEAR=1900
DGENRE=
TTITLE0=Heather
TTITLE1=Deliver Me
TTITLE2=Quiet Desperation
TTITLE3=Backseam
TTITLE4=What Kind of Talk
TTITLE5=If She's Got Voices
TTITLE6=Austen Riggs
TTITLE7=Snake Oil Man
TTITLE8=George Lincoln Rockwell
TTITLE9=Brighton Morning
TTITLE10=I Saw The Light
EXTD=
EXTT0=
EXTT1=
EXTT2=
EXTT3=
EXTT4=
EXTT5=
EXTT6=
EXTT7=
EXTT8=
EXTT9=
EXTT10=
PLAYORDER=
